<?xml version="1.0" encoding="UTF-8"?>
<svg version="1.1" xmlns="http://www.w3.org/2000/svg" width="702" height="702">
<path d="M0 0 C1.1136795 0.00054382 2.22735901 0.00108765 3.37478638 0.00164795 C87.88270223 0.1904722 171.27266437 32.08138802 233.8515625 89.1328125 C235.48185555 90.61819061 237.1224308 92.09236728 238.7734375 93.5546875 C247.86828501 101.61668166 256.45924412 110.09387942 264.3125 119.375 C265.09753906 120.27089844 265.88257813 121.16679688 266.69140625 122.08984375 C295.89651217 155.62545561 317.82075375 195.43778274 332.3125 237.375 C332.59818848 238.19629395 332.88387695 239.01758789 333.17822266 239.86376953 C339.19779846 257.39274524 343.47087338 275.48683199 346.5625 293.75 C346.78897217 295.08260864 346.78897217 295.08260864 347.02001953 296.44213867 C347.4958073 299.41514174 347.91465628 302.39051268 348.3125 305.375 C348.39937073 306.0178595 348.48624146 306.66071899 348.57574463 307.32305908 C350.44145828 321.53784359 350.71276133 335.67720809 350.6875 350 C350.68668427 351.74529495 350.68668427 351.74529495 350.68585205 353.52584839 C350.64462134 372.7744886 349.69615147 391.40698118 346.3125 410.375 C346.09819336 411.5825293 345.88388672 412.79005859 345.66308594 414.03417969 C334.02914543 477.25033679 304.88583849 537.38473771 261.5546875 584.9140625 C260.06930939 586.54435555 258.59513272 588.1849308 257.1328125 589.8359375 C249.07081834 598.93078501 240.59362058 607.52174412 231.3125 615.375 C229.96865234 616.55255859 229.96865234 616.55255859 228.59765625 617.75390625 C195.06204439 646.95901217 155.24971726 668.88325375 113.3125 683.375 C112.49120605 683.66068848 111.66991211 683.94637695 110.82373047 684.24072266 C93.29475476 690.26029846 75.20066801 694.53337338 56.9375 697.625 C55.60489136 697.85147217 55.60489136 697.85147217 54.24536133 698.08251953 C51.27235826 698.5583073 48.29698732 698.97715628 45.3125 699.375 C44.6696405 699.46187073 44.02678101 699.54874146 43.36444092 699.63824463 C29.14965641 701.50395828 15.01029191 701.77526133 0.6875 701.75 C-0.47602997 701.74945618 -1.63955994 701.74891235 -2.83834839 701.74835205 C-22.0869886 701.70712134 -40.71948118 700.75865147 -59.6875 697.375 C-60.8950293 697.16069336 -62.10255859 696.94638672 -63.34667969 696.72558594 C-126.56283679 685.09164543 -186.69723771 655.94833849 -234.2265625 612.6171875 C-235.85685555 611.13180939 -237.4974308 609.65763272 -239.1484375 608.1953125 C-248.24328501 600.13331834 -256.83424412 591.65612058 -264.6875 582.375 C-265.86505859 581.03115234 -265.86505859 581.03115234 -267.06640625 579.66015625 C-296.27151217 546.12454439 -318.19575375 506.31221726 -332.6875 464.375 C-332.97318848 463.55370605 -333.25887695 462.73241211 -333.55322266 461.88623047 C-339.57279846 444.35725476 -343.84587338 426.26316801 -346.9375 408 C-347.08848145 407.11159424 -347.23946289 406.22318848 -347.39501953 405.30786133 C-347.8708073 402.33485826 -348.28965628 399.35948732 -348.6875 396.375 C-348.77437073 395.7321405 -348.86124146 395.08928101 -348.95074463 394.42694092 C-350.81645828 380.21215641 -351.08776133 366.07279191 -351.0625 351.75 C-351.06195618 350.58647003 -351.06141235 349.42294006 -351.06085205 348.22415161 C-351.01962134 328.9755114 -350.07115147 310.34301882 -346.6875 291.375 C-346.47319336 290.1674707 -346.25888672 288.95994141 -346.03808594 287.71582031 C-334.40414543 224.49966321 -305.26083849 164.36526229 -261.9296875 116.8359375 C-260.44430939 115.20564445 -258.97013272 113.5650692 -257.5078125 111.9140625 C-249.44581834 102.81921499 -240.96862058 94.22825588 -231.6875 86.375 C-230.79160156 85.58996094 -229.89570313 84.80492188 -228.97265625 83.99609375 C-195.43704439 54.79098783 -155.62471726 32.86674625 -113.6875 18.375 C-112.86620605 18.08931152 -112.04491211 17.80362305 -111.19873047 17.50927734 C-93.5296848 11.44160052 -75.30623984 7.1168791 -56.875 4.125 C-55.9473584 3.97401855 -55.0197168 3.82303711 -54.06396484 3.66748047 C-36.05495166 0.91476727 -18.20518558 -0.0336601 0 0 Z " fill="#96EAE1" transform="translate(351.6875,0.625)"/>
<path d="M0 0 C4.19939064 3.85423525 7.58989998 8.2793082 10.99609375 12.83203125 C11.44275391 13.42790039 11.88941406 14.02376953 12.34960938 14.63769531 C17.3774278 21.36579258 22.28596483 28.17623997 27.078125 35.07421875 C34.32479132 45.49406889 41.69262559 55.8256737 49.14135742 66.10180664 C52.78053975 71.1290469 56.369445 76.18890005 59.93359375 81.26953125 C64.29159647 87.47510617 68.74087907 93.60753425 73.24609375 99.70703125 C73.83656494 100.5067334 74.42703613 101.30643555 75.03540039 102.13037109 C77.57064358 105.560427 80.11088213 108.9866117 82.66015625 112.40625 C83.75457031 113.88544922 83.75457031 113.88544922 84.87109375 115.39453125 C85.48726562 116.22082031 86.1034375 117.04710937 86.73828125 117.8984375 C87.99609375 119.83203125 87.99609375 119.83203125 87.99609375 121.83203125 C88.65609375 121.83203125 89.31609375 121.83203125 89.99609375 121.83203125 C91.97609375 125.29703125 91.97609375 125.29703125 93.99609375 128.83203125 C94.00195999 127.55131744 94.00782623 126.27060364 94.01387024 124.95108032 C94.07118491 112.85740162 94.14399237 100.76390122 94.23180866 88.67040443 C94.27645789 82.45362276 94.3157262 76.2369058 94.3425293 70.02001953 C94.36861633 64.01578887 94.40905737 58.01180797 94.45928001 52.00773239 C94.47591215 49.72175589 94.4874491 47.43573623 94.49370766 45.14970779 C94.50338834 41.93759481 94.53149575 38.72611556 94.5637207 35.51416016 C94.56228561 34.57763611 94.56085052 33.64111206 94.55937195 32.6762085 C94.69434902 23.10779762 96.87788878 15.19235346 102.99609375 7.76953125 C103.434375 7.20298828 103.87265625 6.63644531 104.32421875 6.05273438 C106.47405387 3.34925196 107.65660662 1.94519363 110.99609375 0.83203125 C110.99609375 0.17203125 110.99609375 -0.48796875 110.99609375 -1.16796875 C112.82393977 -2.13672714 114.65870316 -3.09243748 116.49609375 -4.04296875 C117.51703125 -4.57664063 118.53796875 -5.1103125 119.58984375 -5.66015625 C132.54720119 -11.39586723 146.64839855 -10.57189716 159.6796875 -5.65234375 C168.65359929 -1.6357519 174.57864767 3.70586214 179.99609375 11.83203125 C179.99609375 12.82203125 179.99609375 13.81203125 179.99609375 14.83203125 C180.65609375 14.83203125 181.31609375 14.83203125 181.99609375 14.83203125 C184.32338702 21.52296639 185.43442887 27.43241721 185.3837738 34.50242615 C185.39185211 35.88179961 185.39185211 35.88179961 185.40009362 37.28903919 C185.41429493 40.34183981 185.40728889 43.394202 185.40014648 46.44702148 C185.40585412 48.6473729 185.4128199 50.84772136 185.42094421 53.04806519 C185.43884658 59.00467611 185.43771276 64.96113948 185.43200183 70.91776919 C185.42890595 75.89784267 185.43500685 80.87788796 185.44104058 85.85795742 C185.45587582 98.28056924 185.45228041 110.70311563 185.44017727 123.12572426 C185.43024578 133.89418975 185.44318803 144.66248339 185.46711146 155.43092238 C185.49154035 166.51107744 185.50070205 177.59116334 185.49445873 188.67134625 C185.49109285 194.88280834 185.49348005 201.09412845 185.51070976 207.3055706 C185.5262077 213.14731243 185.52219142 218.98872676 185.50340462 224.83045578 C185.49972676 226.96893185 185.50280366 229.10743233 185.51329041 231.24588585 C185.58510762 247.10698481 184.26537299 259.80720439 173.03125 271.95703125 C161.39356026 283.06860482 149.44687161 285.33554152 134.03125 285.109375 C120.93673475 284.62042877 110.0098946 278.25586913 101.0078125 269.07080078 C97.8139276 265.51644101 95.22632083 261.64035595 92.62109375 257.64453125 C88.83539192 251.97283567 85.02235566 246.38273061 80.80859375 241.01953125 C76.48747799 235.50783254 72.3991538 229.86774641 68.35546875 224.15234375 C66.31406094 221.26774576 64.22334543 218.42267712 62.12109375 215.58203125 C58.58316097 210.74781136 55.29010071 205.77086025 51.99609375 200.76953125 C48.22253176 195.04945777 44.34665704 189.57206345 39.97265625 184.2890625 C36.22848162 179.63474266 32.84467255 174.71126175 29.40820312 169.828125 C27.87056297 167.65458664 26.31705583 165.49293744 24.76171875 163.33203125 C23.67305089 161.81128824 22.58450727 160.29045629 21.49609375 158.76953125 C20.97950195 158.05531006 20.46291016 157.34108887 19.93066406 156.60522461 C17.45037391 153.1223255 15.34104496 149.93893584 13.99609375 145.83203125 C13.33609375 145.83203125 12.67609375 145.83203125 11.99609375 145.83203125 C10.61376932 144.20576721 9.2767186 142.53953105 7.99609375 140.83203125 C7.9937054 141.38972387 7.99131704 141.9474165 7.98885632 142.5220089 C7.92957063 156.12831715 7.85374858 169.73444815 7.76037884 183.34056664 C7.71571915 189.92055401 7.67645308 196.5004801 7.6496582 203.08056641 C7.62358169 209.43491801 7.58314791 215.78903319 7.53290749 222.14323807 C7.51626828 224.56318844 7.50473572 226.98317968 7.49847984 229.40317917 C7.48880697 232.80207648 7.46070839 236.20037296 7.4284668 239.59912109 C7.43061943 241.08806381 7.43061943 241.08806381 7.43281555 242.60708618 C7.28486805 253.6906712 4.2808918 262.41120232 -3.00390625 270.83203125 C-12.00465467 279.55636513 -23.27674881 285.00950138 -35.75390625 285.01953125 C-36.54023438 285.03177734 -37.3265625 285.04402344 -38.13671875 285.05664062 C-50.23121259 285.08677641 -61.29346158 280.14804069 -70.00390625 271.83203125 C-78.23293691 261.99376793 -82.32326676 249.50310247 -82.26460266 236.81938171 C-82.26842821 235.93432554 -82.27225376 235.04926936 -82.27619523 234.1373933 C-82.28648092 231.18357543 -82.28254149 228.22995355 -82.27856445 225.27612305 C-82.28291341 223.15341004 -82.28809718 221.03069861 -82.29405212 218.9079895 C-82.30743451 213.14963405 -82.30802155 207.39134426 -82.30548882 201.63297629 C-82.30441845 196.82196679 -82.30930426 192.01097053 -82.31409425 187.19996387 C-82.32518712 175.8469222 -82.32562827 164.49391361 -82.31958008 153.14086914 C-82.31354163 141.43874011 -82.32584859 129.73673136 -82.34715015 118.03462285 C-82.36477947 107.97919915 -82.37076534 97.9238137 -82.3675124 87.86837512 C-82.3657013 81.86651356 -82.36831841 75.86473778 -82.38222694 69.86289024 C-82.394822 64.21658607 -82.39284517 58.570469 -82.37981606 52.92416763 C-82.37745428 50.85622532 -82.38017061 48.78826977 -82.38843918 46.72034264 C-82.39894225 43.88855716 -82.3907774 41.05739538 -82.37812805 38.22563171 C-82.38550234 37.41519919 -82.39287662 36.60476666 -82.40047437 35.76977557 C-82.28623743 23.54023616 -77.21871573 12.69517297 -69.0234375 3.75 C-51.34402929 -13.04030838 -19.84086638 -14.81501365 0 0 Z " fill="#F5F6F5" transform="translate(423.00390625,167.16796875)"/>
<path d="M0 0 C2.5821944 0.01062333 5.16367762 0.00010356 7.74584961 -0.01269531 C42.32107634 -0.0427584 80.58638695 6.41237659 106.92358398 30.63574219 C113.93648319 38.22319218 115.73093291 45.39270261 115.57446289 55.50170898 C114.97875668 68.88831816 109.59968905 79.35807455 100.02124023 88.50683594 C90.51907025 96.95529995 81.18276338 98.0933615 68.97045898 97.42480469 C61.85869785 96.81770313 56.57706566 93.49464801 50.62670898 89.80761719 C42.43703646 84.89381367 34.07172987 82.27978933 24.84545898 80.15527344 C21.04858398 79.26074219 21.04858398 79.26074219 17.77905273 78.16308594 C12.68743556 76.93150105 7.82932443 76.97047281 2.61108398 77.01074219 C1.61270508 77.00300781 0.61432617 76.99527344 -0.41430664 76.98730469 C-8.86804239 77.00953673 -16.24193278 77.52973388 -22.65844727 83.54980469 C-24.24827209 85.39223248 -24.24827209 85.39223248 -24.63891602 88.82324219 C-23.79934071 93.02111873 -23.17429115 94.41261997 -19.95141602 97.26074219 C-14.25891179 100.45929912 -8.52685809 102.58743437 -2.12719727 103.80371094 C1.70348616 104.60836078 5.35110157 105.99267521 9.04858398 107.26074219 C14.3386802 109.05069099 19.44504484 110.38429581 24.98608398 111.13574219 C33.14560784 112.28347663 40.96746223 114.51832189 48.8996582 116.69091797 C51.64089287 117.41780296 54.40497074 118.02261051 57.17358398 118.63574219 C64.46485289 120.42783778 71.25898443 123.50746812 78.1394043 126.45898438 C80.58322559 127.48526431 83.06356338 128.40200402 85.54858398 129.32324219 C103.6585431 136.59165748 117.57041131 152.12817615 126.04858398 169.26074219 C135.19688638 191.75710146 133.33089377 220.38588831 124.73608398 242.69824219 C113.83397867 266.64334963 93.64969813 282.26247646 69.73608398 291.94824219 C64.60616235 293.81137937 59.41432113 295.43020086 54.17358398 296.94824219 C53.15010864 297.25217896 53.15010864 297.25217896 52.10595703 297.56225586 C37.63637348 301.57145616 22.76121316 301.734612 7.86108398 301.76074219 C6.85022736 301.76408569 5.83937073 301.7674292 4.79788208 301.77087402 C-12.17308273 301.77422741 -27.63370792 300.18432922 -43.95141602 295.26074219 C-45.63025879 294.75534912 -45.63025879 294.75534912 -47.34301758 294.23974609 C-50.55061228 293.26144337 -53.7519991 292.26541486 -56.95141602 291.26074219 C-58.16055664 290.88691406 -59.36969727 290.51308594 -60.61547852 290.12792969 C-77.12365982 284.59616445 -95.79789309 276.00313002 -105.95141602 261.26074219 C-107.56631133 258.00640909 -108.8562372 254.72292037 -109.95141602 251.26074219 C-110.23952148 250.37322266 -110.23952148 250.37322266 -110.53344727 249.46777344 C-112.87759634 237.08979 -111.03505729 224.74676234 -103.95141602 214.26074219 C-103.29141602 214.26074219 -102.63141602 214.26074219 -101.95141602 214.26074219 C-101.7284082 213.68453125 -101.50540039 213.10832031 -101.27563477 212.51464844 C-99.55607369 209.58784389 -97.51840723 208.17007797 -94.76391602 206.19824219 C-93.84223633 205.52664063 -92.92055664 204.85503906 -91.97094727 204.16308594 C-83.15878819 198.61131172 -75.05844217 198.08268218 -64.95141602 199.26074219 C-60.58014538 200.32402423 -56.91170099 202.14677564 -52.95141602 204.26074219 C-51.32546039 205.11817034 -49.69912405 205.97487674 -48.07250977 206.83105469 C-45.3387267 208.27333772 -42.60521287 209.71608608 -39.87353516 211.16235352 C-21.84433486 220.6445443 -5.2030848 224.4998831 15.11108398 224.63574219 C15.79565674 224.64377869 16.48022949 224.65181519 17.18554688 224.66009521 C29.61959608 224.84562228 29.61959608 224.84562228 39.92358398 218.63574219 C40.62483398 217.85199219 41.32608398 217.06824219 42.04858398 216.26074219 C42.37858398 215.93074219 42.70858398 215.60074219 43.04858398 215.26074219 C43.30651457 210.78994542 43.30125014 207.20290796 41.04858398 203.26074219 C39.74094802 202.54498356 38.40338708 201.88261902 37.04858398 201.26074219 C36.46979492 200.94234375 35.89100586 200.62394531 35.29467773 200.29589844 C26.71792658 195.6833476 17.26866883 194.01672086 7.79858398 192.10449219 C4.84051025 191.4389256 1.95166314 190.69751014 -0.96704102 189.88574219 C-9.10505071 187.6329097 -17.33948303 185.77073476 -25.56469727 183.86621094 C-31.65884712 182.4236958 -37.28477791 180.92074651 -42.95141602 178.26074219 C-44.69580845 177.72142559 -46.44590641 177.20019179 -48.20141602 176.69824219 C-72.42809925 168.76507135 -92.53220757 153.49190459 -104.22485352 130.78808594 C-110.4837398 117.44677569 -111.14115677 104.43834936 -111.20141602 89.88574219 C-111.22204102 88.64824219 -111.24266602 87.41074219 -111.26391602 86.13574219 C-111.31040666 75.09421346 -109.2847178 65.55696837 -104.76391602 55.51074219 C-104.23411133 54.31964844 -103.70430664 53.12855469 -103.15844727 51.90136719 C-102.76012695 51.02996094 -102.36180664 50.15855469 -101.95141602 49.26074219 C-101.29141602 49.26074219 -100.63141602 49.26074219 -99.95141602 49.26074219 C-99.89469727 48.55949219 -99.83797852 47.85824219 -99.77954102 47.13574219 C-98.67917605 43.31560721 -96.40550791 41.0424973 -93.70141602 38.26074219 C-92.98405273 37.49890625 -92.98405273 37.49890625 -92.25219727 36.72167969 C-74.41864729 17.87321223 -54.15747624 7.69835652 -28.95141602 2.26074219 C-28.12883301 2.07898438 -27.30625 1.89722656 -26.45874023 1.70996094 C-17.64027884 0.00074186 -8.94587491 -0.04358526 0 0 Z " fill="#F5F6F6" transform="translate(187.951416015625,153.7392578125)"/>
<path d="M0 0 C7.8199688 1.30332813 12.69697075 9.85810092 17.1875 15.9375 C17.72826172 16.65228516 18.26902344 17.36707031 18.82617188 18.10351562 C22.75 23.36670354 22.75 23.36670354 22.75 25.625 C23.41 25.625 24.07 25.625 24.75 25.625 C24.73952637 24.97426514 24.72905273 24.32353027 24.71826172 23.65307617 C24.67670165 20.7062567 24.65067392 17.75949889 24.625 14.8125 C24.60824219 13.78833984 24.59148437 12.76417969 24.57421875 11.70898438 C24.56777344 10.72607422 24.56132812 9.74316406 24.5546875 8.73046875 C24.54421387 7.82449951 24.53374023 6.91853027 24.52294922 5.98510742 C24.75 3.625 24.75 3.625 26.75 0.625 C33.88619914 -0.05463801 33.88619914 -0.05463801 36.35002136 1.88389587 C38.09095127 4.04902908 38.12462058 5.12882576 38.12231445 7.88110352 C38.13165764 9.16241905 38.13165764 9.16241905 38.14118958 10.46961975 C38.13197983 11.3884343 38.12277008 12.30724884 38.11328125 13.25390625 C38.11402901 14.67206886 38.11402901 14.67206886 38.11479187 16.11888123 C38.11245161 18.11695458 38.10272595 20.11503088 38.08618164 22.11303711 C38.06256439 25.17914032 38.0656241 28.24437569 38.07226562 31.31054688 C38.06668979 33.25000521 38.05958051 35.18945986 38.05078125 37.12890625 C38.05214836 38.51016441 38.05214836 38.51016441 38.05354309 39.91932678 C38.04401108 40.77038498 38.03447906 41.62144318 38.0246582 42.49829102 C38.02005081 43.24869156 38.01544342 43.9990921 38.01069641 44.77223206 C37.75 46.625 37.75 46.625 35.75 48.625 C32.57266742 49.5654367 29.93953132 49.49987144 26.75 48.625 C23.1495639 45.77099578 20.52184941 42.2670812 17.75 38.625 C16.82158378 37.43780681 15.89185138 36.25164196 14.9609375 35.06640625 C12.52347532 31.94405841 10.12822537 28.79265717 7.75 25.625 C7.73541748 26.25067871 7.72083496 26.87635742 7.70581055 27.52099609 C7.63147196 30.34796402 7.53476766 33.17373208 7.4375 36 C7.40366211 37.47726562 7.40366211 37.47726562 7.36914062 38.984375 C7.33369141 39.92539062 7.29824219 40.86640625 7.26171875 41.8359375 C7.23553467 42.70524902 7.20935059 43.57456055 7.18237305 44.47021484 C6.75 46.625 6.75 46.625 3.75 48.625 C-2.49972039 49.18301075 -2.49972039 49.18301075 -4.94448853 47.36474609 C-6.54628944 45.23015982 -6.62952902 44.12508081 -6.63818359 41.4765625 C-6.64764008 40.64560059 -6.65709656 39.81463867 -6.6668396 38.95849609 C-6.66076691 38.06469238 -6.65469421 37.17088867 -6.6484375 36.25 C-6.65130768 35.32912598 -6.65417786 34.40825195 -6.65713501 33.45947266 C-6.65917631 31.51268906 -6.65364183 29.56588498 -6.64111328 27.61914062 C-6.62506056 24.63625301 -6.64095972 21.65472039 -6.66015625 18.671875 C-6.65817383 16.781247 -6.65433018 14.89061985 -6.6484375 13 C-6.65451019 12.10619629 -6.66058289 11.21239258 -6.6668396 10.29150391 C-6.65738312 9.46054199 -6.64792664 8.62958008 -6.63818359 7.7734375 C-6.63579681 7.04302246 -6.63341003 6.31260742 -6.63095093 5.56005859 C-5.85580673 1.6226763 -3.74695341 0.72056796 0 0 Z " fill="#F8F9F8" transform="translate(435.25,509.375)"/>
<path d="M0 0 C1.875 -0.36328125 1.875 -0.36328125 4 -0.3125 C4.70125 -0.30863281 5.4025 -0.30476563 6.125 -0.30078125 C8 0 8 0 10 2 C10.14507695 4.74485593 10.18652423 7.38480543 10.125 10.125 C10.11597656 10.87910156 10.10695313 11.63320313 10.09765625 12.41015625 C10.0740687 14.27357254 10.03819719 16.13682593 10 18 C10.80824219 17.27103516 10.80824219 17.27103516 11.6328125 16.52734375 C15.98697694 13.71797363 21.00619201 14.40422398 26 15 C30.88949139 17.270121 33.76263748 20.09501294 36 25 C37.00149414 31.54424618 36.9826134 37.32188741 33.4375 43.0625 C30.36746199 46.98292412 27.62126753 49.13527801 23 51 C16.94018059 51.71896163 16.94018059 51.71896163 13.875 49.375 C13.25625 48.92125 12.6375 48.4675 12 48 C9.59915538 48.80972016 9.59915538 48.80972016 7 50 C3.3125 50.25 3.3125 50.25 0 50 C-2.42087425 47.57912575 -2.25208746 46.99980183 -2.25878906 43.68969727 C-2.26509338 42.79859756 -2.27139771 41.90749786 -2.27789307 40.98939514 C-2.2738446 40.02480881 -2.26979614 39.06022247 -2.265625 38.06640625 C-2.26753845 37.07752914 -2.2694519 36.08865204 -2.27142334 35.06980896 C-2.27278598 32.97581732 -2.26908408 30.88181726 -2.26074219 28.7878418 C-2.25005519 25.57907133 -2.26062909 22.37086221 -2.2734375 19.16210938 C-2.2721157 17.13020709 -2.26955287 15.09830516 -2.265625 13.06640625 C-2.26967346 12.10384415 -2.27372192 11.14128204 -2.27789307 10.14955139 C-2.27158875 9.25529953 -2.26528442 8.36104767 -2.25878906 7.43969727 C-2.25719788 6.65297134 -2.25560669 5.86624542 -2.25396729 5.05567932 C-2 3 -2 3 0 0 Z " fill="#F6F9F7" transform="translate(303,508)"/>
<path d="M0 0 C0.69544922 -0.020625 1.39089844 -0.04125 2.10742188 -0.0625 C8.54585249 -0.11059285 12.9155242 1.65201613 18.3125 5.25 C18.68581109 8.67201828 18.95013183 11.15185629 17.1875 14.1875 C14.38535694 15.77538107 12.49307705 15.62418554 9.3125 15.25 C8.36375 14.755 7.415 14.26 6.4375 13.75 C2.40234837 11.81312722 -0.25493506 12.0207294 -4.6875 12.25 C-4.3575 13.57 -4.0275 14.89 -3.6875 16.25 C-2.16769531 16.63091797 -2.16769531 16.63091797 -0.6171875 17.01953125 C0.73446658 17.36683126 2.08602401 17.71450759 3.4375 18.0625 C4.10265625 18.22814453 4.7678125 18.39378906 5.453125 18.56445312 C10.54202807 19.8865701 15.3550202 21.28007859 19.15625 25.10546875 C21.39583556 29.25929467 21.00316858 33.68642347 20.3125 38.25 C18.23593054 42.99278211 15.01829595 46.07809418 10.3125 48.25 C2.34783772 50.71401317 -6.33037957 49.99309636 -13.6875 46.25 C-18.45385514 42.47663551 -18.45385514 42.47663551 -19.1875 38.625 C-18.6875 36.25 -18.6875 36.25 -17.5625 34.4375 C-14.7916725 32.68264258 -12.9104094 32.86325087 -9.6875 33.25 C-8.92824219 33.74886719 -8.16898438 34.24773438 -7.38671875 34.76171875 C-4.12871005 36.55810271 -2.06454779 36.55913344 1.625 36.4375 C2.69363281 36.41042969 3.76226562 36.38335938 4.86328125 36.35546875 C6.07564453 36.30326172 6.07564453 36.30326172 7.3125 36.25 C6.76010836 34.22257381 6.76010836 34.22257381 5.3125 32.25 C2.42082602 31.25173395 2.42082602 31.25173395 -0.9375 30.75 C-7.58784103 29.37887125 -11.50926837 27.71484106 -16.0625 22.5625 C-18.16000211 18.28682263 -18.39793399 14.92846773 -17.6875 10.25 C-14.25758608 2.12651966 -8.13878564 0.05871081 0 0 Z " fill="#F8FAF9" transform="translate(123.6875,509.75)"/>
<path d="M0 0 C4.81150759 2.10172996 8.0921962 4.6382943 11 9 C12.47679521 15.2025399 13.2230737 21.5068113 10.375 27.3125 C6.50743011 31.68896067 1.37359883 35.50234179 -4.515625 36.37109375 C-11.31165004 36.53614007 -15.93340059 35.71124968 -21 31 C-24.69601116 26.93438772 -26.29802305 23.32594167 -26.4375 17.8125 C-26.13029853 12.52540108 -25.23790006 9.40518385 -21.6875 5.375 C-14.89416367 -0.6284135 -8.89925753 -1.24038324 0 0 Z " fill="#F7F9F8" transform="translate(506,523)"/>
<path d="M0 0 C4.64304055 2.95466217 8.63681586 5.52264976 10.75 10.75 C11.65922221 17.90180884 11.13358475 22.98212533 6.75 28.75 C2.10448696 33.64344773 -2.47251065 35.48121071 -9.125 36.125 C-15.01014139 35.95588674 -19.56967924 33.47453973 -23.625 29.3125 C-27.22439053 23.63653801 -27.96596347 19.20920723 -26.890625 12.51171875 C-25.65914407 7.56083259 -24.00016145 5.13181679 -19.75 2.25 C-13.35920494 -1.58447704 -7.0656835 -2.71757058 0 0 Z " fill="#F7F9F8" transform="translate(176.25,523.25)"/>
<path d="M0 0 C3.28892837 2.81908146 4.46254033 4.64273229 4.8996582 8.96728516 C4.92774722 12.27023902 4.94675754 15.57190981 4.9375 18.875 C4.95361328 20.03257812 4.96972656 21.19015625 4.98632812 22.3828125 C4.98697266 23.48625 4.98761719 24.5896875 4.98828125 25.7265625 C4.99126221 26.73799316 4.99424316 27.74942383 4.99731445 28.79150391 C4.87445068 29.60280762 4.75158691 30.41411133 4.625 31.25 C0.94503497 33.70331002 -1.02913172 33.64507893 -5.375 33.25 C-6.035 32.26 -6.695 31.27 -7.375 30.25 C-8.035 30.25 -8.695 30.25 -9.375 30.25 C-9.99761719 30.97703125 -9.99761719 30.97703125 -10.6328125 31.71875 C-13.75915126 34.46656344 -17.50334464 33.76625127 -21.48046875 33.6796875 C-24.375 33.25 -24.375 33.25 -27.5625 30.875 C-30.42877407 26.72384445 -30.80701147 24.3477353 -30.375 19.25 C-28.0030935 14.90150475 -25.14413775 13.31887925 -20.61328125 11.80859375 C-16.90621088 10.88344355 -13.18082939 10.50548392 -9.375 10.25 C-9.375 9.59 -9.375 8.93 -9.375 8.25 C-13.61827921 8.16513442 -17.62322318 8.11331331 -21.8125 8.875 C-23.0809375 9.060625 -23.0809375 9.060625 -24.375 9.25 C-26.375 7.25 -26.375 7.25 -26.625 4.25 C-26.375 1.25 -26.375 1.25 -24.375 -0.75 C-17.8917904 -3.14832336 -6.08606487 -3.29500327 0 0 Z " fill="#F5F8F7" transform="translate(287.375,524.75)"/>
<path d="M0 0 C3.84583991 3.74189829 6.88811146 6.94871016 7.1875 12.4375 C7 16 7 16 5 19 C2.84521484 19.34057617 2.84521484 19.34057617 0.2109375 19.29296875 C-0.73007812 19.28330078 -1.67109375 19.27363281 -2.640625 19.26367188 C-4.11789062 19.2259668 -4.11789062 19.2259668 -5.625 19.1875 C-7.11386719 19.16719727 -7.11386719 19.16719727 -8.6328125 19.14648438 C-11.08908072 19.11105743 -13.54427285 19.06166196 -16 19 C-14.73776715 21.053424 -14.73776715 21.053424 -13 23 C-8.34602225 23.41955355 -8.34602225 23.41955355 -4 22 C-0.5 21.8125 -0.5 21.8125 3 22 C5 24 5 24 5.0625 26.875 C4 30 4 30 1.125 32.375 C-4.88034592 35.32824624 -11.37904715 34.66634395 -17.6875 33.0625 C-22.49699801 30.0679069 -26.18162738 26.97652192 -29 22 C-30.16854347 16.07229766 -29.92512311 10.99257285 -27.375 5.5 C-19.36342714 -2.93323459 -10.84787568 -6.22748419 0 0 Z " fill="#F5F9F7" transform="translate(397,525)"/>
<path d="M0 0 C1.66869141 -0.03867187 1.66869141 -0.03867187 3.37109375 -0.078125 C7.61510518 0.35822379 10.08761029 1.84430265 13.14453125 4.7578125 C16.34876432 8.96909025 17.07198423 12.05729479 16.8359375 17.33203125 C16.5625 19.25 16.5625 19.25 15.5625 21.25 C8.3025 21.25 1.0425 21.25 -6.4375 21.25 C-4.01027045 25.43799692 -4.01027045 25.43799692 -0.9921875 25.67578125 C-0.10789062 25.63839844 0.77640625 25.60101562 1.6875 25.5625 C2.57695313 25.53800781 3.46640625 25.51351562 4.3828125 25.48828125 C6.53839735 25.48279487 6.53839735 25.48279487 7.5625 24.25 C10 24.0625 10 24.0625 12.5625 24.25 C14.5625 26.25 14.5625 26.25 14.6875 28.875 C14.64625 29.65875 14.605 30.4425 14.5625 31.25 C13.923125 31.518125 13.28375 31.78625 12.625 32.0625 C10.23118314 33.13667752 10.23118314 33.13667752 9.5625 36.25 C-6.07188628 37.16607732 -6.07188628 37.16607732 -11.92578125 32.68359375 C-15.12783328 29.64702244 -19.01589688 25.73549749 -19.7734375 21.26953125 C-19.90581245 13.79034632 -17.7561646 8.97443091 -12.9375 3.3125 C-8.8721462 -0.04141688 -5.18195696 0.07188842 0 0 Z " fill="#F6F9F8" transform="translate(573.4375,522.75)"/>
<path d="M0 0 C2 2 2 2 2.1953125 3.9453125 C2.13020833 5.96354167 2.06510417 7.98177083 2 10 C3.299375 9.979375 4.59875 9.95875 5.9375 9.9375 C7.29165633 9.91600546 8.64756083 9.92851801 10 10 C11 11 11 11 11.125 14.4375 C11 18 11 18 10 20 C7.69 20 5.38 20 3 20 C3.33 24.29 3.66 28.58 4 33 C5.98 33.66 7.96 34.32 10 35 C12 37 12 37 12.25 40.5 C12 44 12 44 10 46 C7.5390625 46.265625 7.5390625 46.265625 4.625 46.25 C3.66851563 46.25515625 2.71203125 46.2603125 1.7265625 46.265625 C-2.62500538 45.84169002 -4.56688525 44.4035842 -7.75 41.4375 C-11.9109453 35.50783484 -10.34808643 26.87664085 -10 20 C-11.65 20 -13.3 20 -15 20 C-15.9765625 13.9453125 -15.9765625 13.9453125 -16 12 C-15.34 11.34 -14.68 10.68 -14 10 C-12.68 10 -11.36 10 -10 10 C-10.12375 8.3603125 -10.12375 8.3603125 -10.25 6.6875 C-10 3 -10 3 -8.375 1.0625 C-5.37896648 -0.27783078 -3.24890907 -0.35314229 0 0 Z " fill="#F5F8F7" transform="translate(538,513)"/>
<path d="M0 0 C0.70125 0.00515625 1.4025 0.0103125 2.125 0.015625 C2.82625 0.01046875 3.5275 0.0053125 4.25 0 C6.125 0.265625 6.125 0.265625 8.125 2.265625 C8.39491906 4.95401885 8.21237357 7.55704436 8.125 10.265625 C10.765 10.265625 13.405 10.265625 16.125 10.265625 C17.50625018 13.02812536 17.31579306 15.21293599 17.125 18.265625 C16.465 18.925625 15.805 19.585625 15.125 20.265625 C13.145 20.265625 11.165 20.265625 9.125 20.265625 C9.455 24.555625 9.785 28.845625 10.125 33.265625 C12.105 33.925625 14.085 34.585625 16.125 35.265625 C17.125 36.265625 17.125 36.265625 17.375 39.640625 C17.125 43.265625 17.125 43.265625 15.87890625 44.96484375 C13.11528784 47.01447611 10.75762732 46.73550293 7.41796875 46.62109375 C3.88046586 46.07269041 1.75373242 44.63148418 -0.875 42.265625 C-1.75 40.015625 -1.75 40.015625 -1.875 38.265625 C-2.535 38.265625 -3.195 38.265625 -3.875 38.265625 C-3.875 32.325625 -3.875 26.385625 -3.875 20.265625 C-5.525 20.265625 -7.175 20.265625 -8.875 20.265625 C-9.875 19.265625 -9.875 19.265625 -10.0625 15.828125 C-9.875 12.265625 -9.875 12.265625 -7.875 10.265625 C-6.555 10.265625 -5.235 10.265625 -3.875 10.265625 C-3.91625 8.986875 -3.9575 7.708125 -4 6.390625 C-4.0703125 4.2109375 -4.0703125 4.2109375 -3.875 2.265625 C-1.875 0.265625 -1.875 0.265625 0 0 Z " fill="#F5F8F7" transform="translate(234.875,512.734375)"/>
<path d="M0 0 C2.16699219 1.01293945 2.16699219 1.01293945 4 3 C4.35569326 5.85529894 4.46681139 8.31917381 4.390625 11.16796875 C4.38496521 11.96278152 4.37930542 12.7575943 4.37347412 13.57649231 C4.35109004 16.11410866 4.30089262 18.6503108 4.25 21.1875 C4.2299375 22.90818273 4.21168629 24.62888759 4.1953125 26.34960938 C4.15121894 30.56695082 4.08217965 34.78323569 4 39 C4.804375 39.309375 5.60875 39.61875 6.4375 39.9375 C9 41 9 41 10 42 C10.57416268 47.28229665 10.57416268 47.28229665 8.5 49.875 C4.9597863 51.46809617 1.76283091 51.78723334 -2 51 C-5.52185256 49.02321824 -7.69957163 46.9012851 -9 43 C-9.12138997 40.01307102 -9.18818779 37.05022423 -9.203125 34.0625 C-9.20882507 33.18601807 -9.21452515 32.30953613 -9.22039795 31.40649414 C-9.22983993 29.55388596 -9.23637875 27.70126104 -9.24023438 25.84863281 C-9.24996307 23.01077219 -9.28100291 20.17362887 -9.3125 17.3359375 C-9.31902796 15.53646264 -9.32427924 13.73698259 -9.328125 11.9375 C-9.3404718 11.08744385 -9.3528186 10.2373877 -9.36553955 9.36157227 C-9.3430778 3.44192012 -9.3430778 3.44192012 -7.66131592 1.27563477 C-5.08736229 -0.7007652 -3.1462446 -0.38525444 0 0 Z " fill="#F5F8F6" transform="translate(355,508)"/>
<path d="M0 0 C5.80512153 0.33637153 5.80512153 0.33637153 8.02734375 2.55859375 C8.02734375 3.87859375 8.02734375 5.19859375 8.02734375 6.55859375 C8.68734375 6.55859375 9.34734375 6.55859375 10.02734375 6.55859375 C10.15109375 5.93984375 10.27484375 5.32109375 10.40234375 4.68359375 C11.02734375 2.55859375 11.02734375 2.55859375 13.02734375 0.55859375 C15.12109375 0.29296875 15.12109375 0.29296875 17.52734375 0.30859375 C18.32140625 0.3034375 19.11546875 0.29828125 19.93359375 0.29296875 C22.02734375 0.55859375 22.02734375 0.55859375 24.02734375 2.55859375 C24.59370414 8.78855802 24.59370414 8.78855802 22.7890625 11.2421875 C20.61388495 12.8675419 19.21850586 13.01315348 16.52734375 13.18359375 C13.7253226 13.37973523 11.7285983 13.65817557 9.02734375 14.55859375 C9.01276123 15.11844971 8.99817871 15.67830566 8.9831543 16.25512695 C8.90863023 18.79447512 8.81198794 21.33251453 8.71484375 23.87109375 C8.68100586 25.19270508 8.68100586 25.19270508 8.64648438 26.54101562 C8.61103516 27.38857422 8.57558594 28.23613281 8.5390625 29.109375 C8.51287842 29.88966064 8.48669434 30.66994629 8.4597168 31.47387695 C7.92254976 34.06386528 7.11997924 34.97573849 5.02734375 36.55859375 C2.08984375 36.99609375 2.08984375 36.99609375 -0.97265625 36.55859375 C-3.79206709 34.41209462 -4.85419819 33.23227713 -5.47436523 29.70532227 C-5.47251221 28.62694092 -5.47065918 27.54855957 -5.46875 26.4375 C-5.4697168 24.66342773 -5.4697168 24.66342773 -5.47070312 22.85351562 C-5.45072266 21.62181641 -5.43074219 20.39011719 -5.41015625 19.12109375 C-5.42079102 17.2793457 -5.42079102 17.2793457 -5.43164062 15.40039062 C-5.33334338 1.51023387 -5.33334338 1.51023387 0 0 Z " fill="#F6F9F8" transform="translate(198.97265625,522.44140625)"/>
<path d="M0 0 C3 0.5625 3 0.5625 5.4375 2.625 C7.47631034 6.45796344 7.14831346 8.42857156 6 12.5625 C4.8125 14.5 4.8125 14.5 3 15.5625 C0.0625 16.0625 0.0625 16.0625 -3 15.5625 C-5.89648251 12.97091039 -6.87307907 11.3398907 -7.5 7.5 C-7 4.5625 -7 4.5625 -5.375 2.1875 C-3 0.5625 -3 0.5625 0 0 Z " fill="#9FE9E2" transform="translate(499,532.4375)"/>
<path d="M0 0 C3.625 -0.1875 3.625 -0.1875 7 0 C7 0.66 7 1.32 7 2 C8.32 2.66 9.64 3.32 11 4 C11.47183746 8.05780213 11.33329645 9.56195324 8.8125 12.875 C6 15 6 15 3.4375 15.625 C1 15 1 15 -1.375 12.9375 C-3.48797122 9.11789818 -3.07950297 7.16379719 -2 3 C-1.34 2.01 -0.68 1.02 0 0 Z " fill="#9CEBE1" transform="translate(164,533)"/>
<path d="M0 0 C3.37013879 0.67402776 4.51677007 1.7087875 6.5 4.5 C6.98746608 7.84262452 6.81565201 9.79442492 5.4375 12.875 C3.5 14.5 3.5 14.5 0 15.0625 C-3.5 14.5 -3.5 14.5 -5.4375 12.3125 C-6.56302265 9.33317535 -7.06262774 7.63464029 -6.5 4.5 C-4.50600369 1.76748653 -3.3376027 0.66752054 0 0 Z " fill="#96EAE0" transform="translate(319.5,532.5)"/>
<path d="M0 0 C12.66970387 -0.3690205 12.66970387 -0.3690205 18 2 C18 2.33 18 2.66 18 3 C12.87490686 4.43862264 8.37479371 5.52694056 3 5 C1.0625 3.625 1.0625 3.625 0 2 C0 1.34 0 0.68 0 0 Z " fill="#A7E7DF" transform="translate(381,544)"/>
<path d="M0 0 C2.05078125 0.03255208 4.1015625 0.06510417 6.15234375 0.09765625 C6.33984375 2.47265625 6.33984375 2.47265625 6.15234375 5.09765625 C2.92860698 7.2468141 1.88530701 7.48052428 -1.84765625 7.09765625 C-2.50765625 6.43765625 -3.16765625 5.77765625 -3.84765625 5.09765625 C-3.1001104 0.16385362 -3.1001104 0.16385362 0 0 Z " fill="#9FEAE2" transform="translate(272.84765625,542.90234375)"/>
<path d="M0 0 C6.0546875 -0.1953125 6.0546875 -0.1953125 8 0 C10 2 10 2 10 5 C6.04 5 2.08 5 -2 5 C-1.34 3.35 -0.68 1.7 0 0 Z " fill="#AAEAE2" transform="translate(382,532)"/>
<path d="M0 0 C3.625 0.25 3.625 0.25 5.5625 1.625 C6.625 3.25 6.625 3.25 6.625 5.25 C2.665 5.25 -1.295 5.25 -5.375 5.25 C-4.13915094 0.30660377 -4.13915094 0.30660377 0 0 Z " fill="#AAEDE4" transform="translate(572.375,531.75)"/>
<path d="M0 0 C0.33 0 0.66 0 1 0 C1 14.19 1 28.38 1 43 C-0.32 43.66 -1.64 44.32 -3 45 C-2.67 44.01 -2.34 43.02 -2 42 C-1.34 42 -0.68 42 0 42 C0 28.14 0 14.28 0 0 Z " fill="#E6F5F2" transform="translate(472,513)"/>
<path d="M0 0 C0.33 0 0.66 0 1 0 C1 8.25 1 16.5 1 25 C-0.98 25.99 -0.98 25.99 -3 27 C-2.67 25.68 -2.34 24.36 -2 23 C-1.34 23 -0.68 23 0 23 C0 15.41 0 7.82 0 0 Z " fill="#E5F5F0" transform="translate(291,531)"/>
<path d="M0 0 C0.66 0.33 1.32 0.66 2 1 C-2 5 -6 9 -10 13 C-10.33 12.34 -10.66 11.68 -11 11 C-10.67 10.34 -10.34 9.68 -10 9 C-9.34 9 -8.68 9 -8 9 C-7.79375 8.443125 -7.5875 7.88625 -7.375 7.3125 C-5.44999226 4.07498698 -2.96149098 2.31768859 0 0 Z " fill="#E7F7F3" transform="translate(94,359)"/>
<path d="M0 0 C1.32 0.66 2.64 1.32 4 2 C4 2.99 4 3.98 4 5 C1.47524538 6.26237731 -0.31200466 6.09856404 -3.125 6.0625 C-4.03507812 6.05347656 -4.94515625 6.04445313 -5.8828125 6.03515625 C-6.58148438 6.02355469 -7.28015625 6.01195312 -8 6 C-8 5.67 -8 5.34 -8 5 C-5.69 5 -3.38 5 -1 5 C-0.67 3.35 -0.34 1.7 0 0 Z " fill="#ABE9E2" transform="translate(127,541)"/>
<path d="M0 0 C3.6875 0.875 3.6875 0.875 7 2 C7 2.33 7 2.66 7 3 C1.77487721 4.46670113 -2.5814234 5.22577402 -8 5 C-8 4.67 -8 4.34 -8 4 C-6.35 4 -4.7 4 -3 4 C-3 3.34 -3 2.68 -3 2 C-2.01 1.34 -1.02 0.68 0 0 Z " fill="#B4EAE3" transform="translate(392,544)"/>
</svg>
